<svg width="257" height="256" viewBox="0 0 257 256" fill="none" xmlns="http://www.w3.org/2000/svg">
<g filter="url(#filter0_i_121_52)">
<path d="M245 51.4393H113.022C106.394 51.4393 101.022 56.8119 101.022 63.4393V244C101.022 250.627 106.394 256 113.022 256H245C251.627 256 257 250.627 257 244V63.4393C257 56.8119 251.627 51.4393 245 51.4393Z" fill="#008242"/>
</g>
<rect x="124.901" y="99.2897" width="23.1875" height="20.1613" fill="#E8E8E8"/>
<rect x="210.023" y="99.2897" width="23.1875" height="20.1613" fill="#E8E8E8"/>
<rect x="159.987" y="105.656" width="38.7475" height="6.89727" fill="#E8E8E8"/>
<rect x="174.632" y="112.554" width="9.15294" height="9.01951" fill="#E8E8E8"/>
<rect x="148.088" y="108.044" width="11.8988" height="2.12224" fill="#E8E8E8"/>
<rect x="177.988" y="146.775" width="25.4669" height="2.44079" transform="rotate(-90 177.988 146.775)" fill="#E8E8E8"/>
<rect x="198.734" y="108.044" width="11.8988" height="2.12224" fill="#E8E8E8"/>
<path d="M202.641 168.793C202.641 179.549 192.49 188.842 179.208 188.842C165.926 188.842 155.775 179.549 155.775 168.793C155.775 158.037 165.926 148.744 179.208 148.744C192.49 148.744 202.641 158.037 202.641 168.793Z" stroke="#E8E8E8" stroke-width="5"/>
<circle cx="179" cy="169" r="12" fill="#E8E8E8"/>
<path d="M179.056 191.209V220.39" stroke="#E8E8E8" stroke-width="3"/>
<path d="M198.734 181.526V209.646L211.243 220.523" stroke="#E8E8E8" stroke-width="3"/>
<path d="M159.682 181.526V209.646L147.173 220.523" stroke="#E8E8E8" stroke-width="3"/>
<path d="M202.548 175.69H231.532L240.685 183.649" stroke="#E8E8E8" stroke-width="3"/>
<path d="M157.241 175.69H128.257L119.104 183.649" stroke="#E8E8E8" stroke-width="3"/>
<ellipse cx="118.036" cy="185.373" rx="4.42392" ry="3.84656" fill="#E8E8E8"/>
<ellipse cx="147.325" cy="220.39" rx="4.42392" ry="3.84656" fill="#E8E8E8"/>
<ellipse cx="179.056" cy="222.247" rx="4.42392" ry="3.84656" fill="#E8E8E8"/>
<ellipse cx="211.396" cy="220.39" rx="4.42392" ry="3.84656" fill="#E8E8E8"/>
<ellipse cx="240.685" cy="183.516" rx="4.42392" ry="3.84656" fill="#E8E8E8"/>
<g filter="url(#filter1_d_121_52)">
<path d="M1 140.86V0H86.6081C95.3083 0 99.6583 0 103.108 2.20649C106.557 4.41297 108.381 8.36228 112.028 16.2609L169.568 140.86H1Z" fill="#D9D9D9"/>
</g>
<path fill-rule="evenodd" clip-rule="evenodd" d="M66.8232 34.0934C65.0663 34.0934 63.3488 34.5383 61.888 35.3718C60.4272 36.2054 59.2886 37.3901 58.6163 38.7761C57.944 40.1622 57.7681 41.6874 58.1108 43.1589C58.4536 44.6303 59.2996 45.9819 60.5419 47.0428C61.7842 48.1037 63.367 48.8261 65.0902 49.1188C66.8133 49.4115 68.5994 49.2613 70.2226 48.6871C71.8458 48.113 73.2331 47.1407 74.2092 45.8933C75.1853 44.6459 75.7063 43.1793 75.7063 41.679C75.7067 40.6827 75.4773 39.6962 75.031 38.7757C74.5848 37.8552 73.9304 37.0188 73.1055 36.3143C72.2805 35.6099 71.3011 35.0511 70.2231 34.6701C69.1452 34.289 67.9899 34.0931 66.8232 34.0934" fill="#008242"/>
<path fill-rule="evenodd" clip-rule="evenodd" d="M44.8556 44.9249C43.1013 44.9261 41.3867 45.3712 39.9284 46.204C38.4701 47.0368 37.3335 48.2199 36.6622 49.604C35.9908 50.988 35.8148 52.5109 36.1564 53.9803C36.498 55.4498 37.3418 56.7998 38.5814 57.8599C39.8209 58.9201 41.4005 59.6428 43.1208 59.9368C44.841 60.2308 46.6247 60.0828 48.2465 59.5117C49.8684 58.9406 51.2556 57.9719 52.2332 56.7279C53.2107 55.4839 53.7346 54.0205 53.7387 52.5224C53.7415 51.525 53.5137 50.537 53.0684 49.6149C52.6231 48.6929 51.9691 47.8549 51.1439 47.1491C50.3187 46.4433 49.3384 45.8836 48.2594 45.5019C47.1803 45.1202 46.0236 44.9241 44.8556 44.9249Z" fill="#008242"/>
<path fill-rule="evenodd" clip-rule="evenodd" d="M88.7941 60.0871C90.5501 60.0859 92.2662 59.64 93.7253 58.8058C95.1844 57.9715 96.321 56.7865 96.9912 55.4005C97.6615 54.0145 97.8352 52.49 97.4905 51.0196C97.1459 49.5493 96.2982 48.1994 95.0549 47.1405C93.8115 46.0817 92.2283 45.3616 90.5055 45.0713C88.7828 44.781 86.9979 44.9335 85.3767 45.5097C83.7555 46.0858 82.3709 47.0596 81.398 48.3079C80.4251 49.5562 79.9076 51.0228 79.911 52.5223C79.9115 53.5178 80.1417 54.5035 80.5884 55.4229C81.0352 56.3424 81.6897 57.1777 82.5147 57.8811C83.3397 58.5844 84.3188 59.1421 85.3963 59.5221C86.4738 59.9022 87.6284 60.0972 88.7941 60.096" fill="#008242"/>
<path fill-rule="evenodd" clip-rule="evenodd" d="M88.7941 66.5847C87.0372 66.5835 85.3194 67.0273 83.8578 67.8598C82.3962 68.6923 81.2566 69.8763 80.583 71.2619C79.9093 72.6475 79.732 74.1726 80.0734 75.6443C80.4148 77.116 81.2596 78.4682 82.501 79.5299C83.7423 80.5916 85.3245 81.3151 87.0473 81.6089C88.7702 81.9028 90.5564 81.7537 92.1801 81.1807C93.8038 80.6076 95.1921 79.6363 96.1693 78.3895C97.1465 77.1427 97.6689 75.6765 97.6702 74.1762C97.6712 72.1646 96.7367 70.2351 95.0723 68.8115C93.408 67.388 91.1498 66.5871 88.7941 66.5847" fill="#008242"/>
<path fill-rule="evenodd" clip-rule="evenodd" d="M44.8557 66.5847C43.0991 66.5847 41.382 67.0295 39.9213 67.8627C38.4606 68.696 37.3221 69.8803 36.6495 71.266C35.977 72.6518 35.8007 74.1767 36.1429 75.648C36.4851 77.1193 37.3304 78.4709 38.572 79.532C39.8136 80.5931 41.3958 81.316 43.1185 81.6093C44.8412 81.9027 46.627 81.7533 48.2503 81.1801C49.8736 80.6069 51.2614 79.6356 52.2384 78.3889C53.2153 77.1423 53.7374 75.6762 53.7388 74.1762C53.7397 73.1796 53.5106 72.1925 53.0646 71.2715C52.6186 70.3505 51.9644 69.5136 51.1395 68.8086C50.3145 68.1036 49.3349 67.5443 48.2568 67.1627C47.1786 66.7811 46.0229 66.5847 44.8557 66.5847" fill="#008242"/>
<path fill-rule="evenodd" clip-rule="evenodd" d="M66.8231 77.4161C64.4687 77.4169 62.2111 78.2161 60.5466 79.638C58.8821 81.0599 57.947 82.9881 57.947 84.9987V100.158C58.0118 102.131 58.9753 104.005 60.6329 105.382C62.2904 106.758 64.5112 107.528 66.8231 107.528C69.1351 107.528 71.3559 106.758 73.0134 105.382C74.671 104.005 75.6345 102.131 75.6992 100.158V84.9987C75.6974 82.9876 74.7608 81.0594 73.0952 79.6377C71.4296 78.2159 69.1712 77.4169 66.8162 77.4161" fill="#008242"/>
<defs>
<filter id="filter0_i_121_52" x="101.022" y="51.4393" width="165.978" height="213.561" filterUnits="userSpaceOnUse" color-interpolation-filters="sRGB">
<feFlood flood-opacity="0" result="BackgroundImageFix"/>
<feBlend mode="normal" in="SourceGraphic" in2="BackgroundImageFix" result="shape"/>
<feColorMatrix in="SourceAlpha" type="matrix" values="0 0 0 0 0 0 0 0 0 0 0 0 0 0 0 0 0 0 127 0" result="hardAlpha"/>
<feOffset dx="10" dy="9"/>
<feGaussianBlur stdDeviation="10.75"/>
<feComposite in2="hardAlpha" operator="arithmetic" k2="-1" k3="1"/>
<feColorMatrix type="matrix" values="0 0 0 0 0 0 0 0 0 0 0 0 0 0 0 0 0 0 0.25 0"/>
<feBlend mode="normal" in2="shape" result="effect1_innerShadow_121_52"/>
</filter>
<filter id="filter1_d_121_52" x="0.4" y="0" width="191.768" height="164.46" filterUnits="userSpaceOnUse" color-interpolation-filters="sRGB">
<feFlood flood-opacity="0" result="BackgroundImageFix"/>
<feColorMatrix in="SourceAlpha" type="matrix" values="0 0 0 0 0 0 0 0 0 0 0 0 0 0 0 0 0 0 127 0" result="hardAlpha"/>
<feOffset dx="11" dy="12"/>
<feGaussianBlur stdDeviation="5.8"/>
<feComposite in2="hardAlpha" operator="out"/>
<feColorMatrix type="matrix" values="0 0 0 0 0 0 0 0 0 0 0 0 0 0 0 0 0 0 0.25 0"/>
<feBlend mode="normal" in2="BackgroundImageFix" result="effect1_dropShadow_121_52"/>
<feBlend mode="normal" in="SourceGraphic" in2="effect1_dropShadow_121_52" result="shape"/>
</filter>
</defs>
</svg>
